SourceCode-Black.ufo
<glyph name="Y" format="2">
	<unicode hex="0059"/>
	<advance width="600"/>
	<outline>
		<contour>
			<point x="214" y="0" type="line"/>
			<point x="386" y="0" type="line"/>
			<point x="386" y="215" type="line"/>
			<point x="592" y="650" type="line"/>
			<point x="412" y="650" type="line"/>
			<point x="358" y="508" type="line" smooth="yes"/>
			<point x="340" y="458"/>
			<point x="321" y="412"/>
			<point x="303" y="360" type="curve"/>
			<point x="299" y="360" type="line"/>
			<point x="281" y="412"/>
			<point x="263" y="458"/>
			<point x="246" y="508" type="curve" smooth="yes"/>
			<point x="192" y="650" type="line"/>
			<point x="8" y="650" type="line"/>
			<point x="214" y="215" type="line"/>
		</contour>
	</outline>
	<anchor name="aboveUC" x="300" y="670"/>
	<anchor name="belowLC" x="300" y="-20"/>
	<anchor name="ogonekUC" x="300" y="0"/>
</glyph>
<glyph name="o" format="2">
	<unicode hex="006F"/>
	<advance width="600"/>
	<outline>
		<contour>
			<point x="300" y="-12" type="curve" smooth="yes"/>
			<point x="432" y="-12"/>
			<point x="558" y="84"/>
			<point x="558" y="250" type="curve" smooth="yes"/>
			<point x="558" y="416"/>
			<point x="432" y="512"/>
			<point x="300" y="512" type="curve" smooth="yes"/>
			<point x="168" y="512"/>
			<point x="42" y="416"/>
			<point x="42" y="250" type="curve" smooth="yes"/>
			<point x="42" y="84"/>
			<point x="168" y="-12"/>
		</contour>
		<contour>
			<point x="300" y="126" type="curve" smooth="yes"/>
			<point x="242" y="126"/>
			<point x="218" y="174"/>
			<point x="218" y="250" type="curve" smooth="yes"/>
			<point x="218" y="326"/>
			<point x="242" y="374"/>
			<point x="300" y="374" type="curve" smooth="yes"/>
			<point x="358" y="374"/>
			<point x="382" y="326"/>
			<point x="382" y="250" type="curve" smooth="yes"/>
			<point x="382" y="174"/>
			<point x="358" y="126"/>
		</contour>
	</outline>
	<anchor name="aboveLC" x="300" y="520"/>
	<anchor name="baseLC" x="300" y="0"/>
	<anchor name="belowLC" x="300" y="-20"/>
	<anchor name="hornLC" x="414" y="500"/>
	<anchor name="ogonekLC" x="300" y="0"/>
</glyph>
<glyph name="paragraph" format="2">
	<unicode hex="00B6"/>
	<advance width="600"/>
	<outline>
		<contour>
			<point x="277" y="186" type="curve" smooth="yes"/>
			<point x="319" y="186" type="line"/>
			<point x="319" y="650" type="line"/>
			<point x="278" y="650" type="line" smooth="yes"/>
			<point x="150" y="650"/>
			<point x="38" y="596"/>
			<point x="38" y="424" type="curve" smooth="yes"/>
			<point x="38" y="269"/>
			<point x="150" y="186"/>
		</contour>
		<contour>
			<point x="370" y="-80" type="line"/>
			<point x="542" y="-80" type="line"/>
			<point x="542" y="650" type="line"/>
			<point x="370" y="650" type="line"/>
		</contour>
	</outline>
</glyph>
<glyph name="dcaron" format="2">
	<unicode hex="010F"/>
	<advance width="600"/>
	<outline>
		<contour>
			<point x="205" y="-12" type="curve" smooth="yes"/>
			<point x="243" y="-12"/>
			<point x="282" y="15"/>
			<point x="314" y="46" type="curve"/>
			<point x="318" y="46" type="line"/>
			<point x="330" y="0" type="line"/>
			<point x="460" y="0" type="line"/>
			<point x="460" y="696" type="line"/>
			<point x="298" y="696" type="line"/>
			<point x="298" y="534" type="line"/>
			<point x="306" y="462" type="line"/>
			<point x="302" y="462" type="line"/>
			<point x="274" y="492"/>
			<point x="249" y="512"/>
			<point x="205" y="512" type="curve" smooth="yes"/>
			<point x="115" y="512"/>
			<point x="26" y="414"/>
			<point x="26" y="250" type="curve" smooth="yes"/>
			<point x="26" y="88"/>
			<point x="96" y="-12"/>
		</contour>
		<contour>
			<point x="250" y="128" type="curve" smooth="yes"/>
			<point x="214" y="128"/>
			<point x="192" y="162"/>
			<point x="192" y="252" type="curve" smooth="yes"/>
			<point x="192" y="340"/>
			<point x="221" y="372"/>
			<point x="252" y="372" type="curve" smooth="yes"/>
			<point x="269" y="372"/>
			<point x="281" y="363"/>
			<point x="298" y="348" type="curve"/>
			<point x="298" y="164" type="line"/>
			<point x="281" y="138"/>
			<point x="270" y="128"/>
		</contour>
		<component base="caron.a" xOffset="260"/>
	</outline>
</glyph>
<glyph name="Tbar" format="2">
	<unicode hex="0166"/>
	<advance width="600"/>
	<outline>
		<contour>
			<point x="84" y="274" type="line"/>
			<point x="516" y="274" type="line"/>
			<point x="516" y="354" type="line"/>
			<point x="180" y="354" type="line"/>
			<point x="84" y="348" type="line"/>
		</contour>
		<component base="T"/>
	</outline>
	<anchor name="aboveUC" x="300" y="670"/>
	<anchor name="belowLC" x="300" y="-20"/>
</glyph>
<glyph name="eopen" format="2">
	<unicode hex="025B"/>
	<advance width="600"/>
	<outline>
		<contour>
			<point x="316" y="-12" type="curve" smooth="yes"/>
			<point x="422" y="-12"/>
			<point x="488" y="6"/>
			<point x="550" y="54" type="curve"/>
			<point x="484" y="162" type="line"/>
			<point x="452" y="138"/>
			<point x="404" y="118"/>
			<point x="350" y="118" type="curve" smooth="yes"/>
			<point x="262" y="118"/>
			<point x="230" y="135"/>
			<point x="230" y="163" type="curve" smooth="yes"/>
			<point x="230" y="190"/>
			<point x="256" y="198"/>
			<point x="318" y="198" type="curve"/>
			<point x="406" y="198" type="line"/>
			<point x="406" y="310" type="line"/>
			<point x="334" y="310" type="line"/>
			<point x="280" y="310"/>
			<point x="250" y="318"/>
			<point x="250" y="343" type="curve" smooth="yes"/>
			<point x="250" y="366"/>
			<point x="274" y="382"/>
			<point x="346" y="382" type="curve" smooth="yes"/>
			<point x="390" y="382"/>
			<point x="440" y="372"/>
			<point x="482" y="348" type="curve"/>
			<point x="542" y="456" type="line"/>
			<point x="482" y="492"/>
			<point x="405" y="512"/>
			<point x="336" y="512" type="curve" smooth="yes"/>
			<point x="188" y="512"/>
			<point x="82" y="471"/>
			<point x="82" y="368" type="curve" smooth="yes"/>
			<point x="82" y="330"/>
			<point x="113" y="284"/>
			<point x="177" y="266" type="curve"/>
			<point x="177" y="262" type="line"/>
			<point x="104" y="244"/>
			<point x="62" y="212"/>
			<point x="62" y="146" type="curve" smooth="yes"/>
			<point x="62" y="40"/>
			<point x="174" y="-12"/>
		</contour>
	</outline>
	<anchor name="aboveLC" x="330" y="520"/>
	<anchor name="baseLC" x="310" y="0"/>
	<anchor name="belowLC" x="310" y="-20"/>
</glyph>
<glyph name="w.sups" format="2">
	<unicode hex="02B7"/>
	<advance width="600"/>
	<outline>
		<contour>
			<point x="112" y="368" type="line"/>
			<point x="248" y="368" type="line"/>
			<point x="270" y="480" type="line"/>
			<point x="284" y="570" type="line"/>
			<point x="286" y="570" type="line"/>
			<point x="300" y="480" type="line"/>
			<point x="324" y="368" type="line"/>
			<point x="462" y="368" type="line"/>
			<point x="537" y="700" type="line"/>
			<point x="428" y="700" type="line"/>
			<point x="404" y="564" type="line"/>
			<point x="391" y="462" type="line"/>
			<point x="388" y="462" type="line"/>
			<point x="370" y="564" type="line"/>
			<point x="334" y="700" type="line"/>
			<point x="240" y="700" type="line"/>
			<point x="206" y="564" type="line"/>
			<point x="189" y="462" type="line"/>
			<point x="186" y="462" type="line"/>
			<point x="174" y="564" type="line"/>
			<point x="150" y="700" type="line"/>
			<point x="32" y="700" type="line"/>
		</contour>
	</outline>
</glyph>
<glyph name="macroncmb" format="2">
	<unicode hex="0304"/>
	<advance width="600"/>
	<outline>
		<contour>
			<point x="146" y="588" type="line"/>
			<point x="454" y="588" type="line"/>
			<point x="454" y="696" type="line"/>
			<point x="146" y="696" type="line"/>
		</contour>
	</outline>
	<anchor name="_aboveLC" x="300" y="520"/>
	<anchor name="aboveLC" x="300" y="700"/>
</glyph>
<glyph name="caroncmb" format="2">
	<unicode hex="030C"/>
	<advance width="600"/>
	<outline>
		<contour>
			<point x="212" y="578" type="line"/>
			<point x="388" y="578" type="line"/>
			<point x="494" y="706" type="line"/>
			<point x="430" y="766" type="line"/>
			<point x="302" y="682" type="line"/>
			<point x="298" y="682" type="line"/>
			<point x="170" y="766" type="line"/>
			<point x="106" y="706" type="line"/>
		</contour>
	</outline>
	<anchor name="_aboveLC" x="300" y="520"/>
</glyph>
<glyph name="Ya" format="2">
	<unicode hex="042F"/>
	<advance width="600"/>
	<outline>
		<contour>
			<point x="371" y="0" type="line"/>
			<point x="543" y="0" type="line"/>
			<point x="543" y="650" type="line"/>
			<point x="297" y="650" type="line" smooth="yes"/>
			<point x="157" y="650"/>
			<point x="37" y="602"/>
			<point x="37" y="440" type="curve" smooth="yes"/>
			<point x="37" y="283"/>
			<point x="157" y="218"/>
			<point x="297" y="218" type="curve" smooth="yes"/>
			<point x="371" y="218" type="line"/>
		</contour>
		<contour>
			<point x="309" y="354" type="line" smooth="yes"/>
			<point x="241" y="354"/>
			<point x="205" y="384"/>
			<point x="205" y="440" type="curve" smooth="yes"/>
			<point x="205" y="496"/>
			<point x="241" y="514"/>
			<point x="309" y="514" type="curve" smooth="yes"/>
			<point x="371" y="514" type="line"/>
			<point x="371" y="354" type="line"/>
		</contour>
		<contour>
			<point x="-7" y="0" type="line"/>
			<point x="189" y="0" type="line"/>
			<point x="342" y="263" type="line"/>
			<point x="228" y="357" type="line"/>
		</contour>
	</outline>
	<anchor name="aboveUC" x="320" y="670"/>
</glyph>
<glyph name="yu" format="2">
	<unicode hex="044E"/>
	<advance width="600"/>
	<outline>
		<contour>
			<point x="26" y="0" type="line"/>
			<point x="188" y="0" type="line"/>
			<point x="188" y="178" type="line"/>
			<point x="243" y="178" type="line"/>
			<point x="249" y="328" type="line"/>
			<point x="188" y="328" type="line"/>
			<point x="188" y="500" type="line"/>
			<point x="26" y="500" type="line"/>
		</contour>
		<contour>
			<point x="400" y="-12" type="curve" smooth="yes"/>
			<point x="515" y="-12"/>
			<point x="586" y="74"/>
			<point x="586" y="250" type="curve" smooth="yes"/>
			<point x="586" y="426"/>
			<point x="515" y="512"/>
			<point x="400" y="512" type="curve" smooth="yes"/>
			<point x="298" y="512"/>
			<point x="226" y="422"/>
			<point x="226" y="250" type="curve" smooth="yes"/>
			<point x="226" y="78"/>
			<point x="298" y="-12"/>
		</contour>
		<contour>
			<point x="388" y="126" type="curve" smooth="yes"/>
			<point x="369" y="126"/>
			<point x="354" y="150"/>
			<point x="354" y="250" type="curve" smooth="yes"/>
			<point x="354" y="350"/>
			<point x="369" y="374"/>
			<point x="388" y="374" type="curve" smooth="yes"/>
			<point x="409" y="374"/>
			<point x="422" y="350"/>
			<point x="422" y="250" type="curve" smooth="yes"/>
			<point x="422" y="150"/>
			<point x="409" y="126"/>
		</contour>
	</outline>
	<anchor name="aboveLC" x="300" y="520"/>
</glyph>
<glyph name="questiondbl" format="2">
	<unicode hex="2047"/>
	<advance width="600"/>
	<outline>
		<contour>
			<point x="68" y="264" type="curve"/>
			<point x="208" y="264" type="line"/>
			<point x="196" y="366"/>
			<point x="304" y="403"/>
			<point x="304" y="546" type="curve" smooth="yes"/>
			<point x="304" y="630"/>
			<point x="234" y="682"/>
			<point x="150" y="682" type="curve" smooth="yes"/>
			<point x="100" y="682"/>
			<point x="46" y="664"/>
			<point x="6" y="626" type="curve"/>
			<point x="80" y="528" type="line"/>
			<point x="94" y="540"/>
			<point x="100" y="544"/>
			<point x="114" y="544" type="curve" smooth="yes"/>
			<point x="127" y="544"/>
			<point x="140" y="534"/>
			<point x="140" y="510" type="curve" smooth="yes"/>
			<point x="140" y="440"/>
			<point x="46" y="382"/>
		</contour>
		<contour>
			<point x="146" y="-12" type="curve" smooth="yes"/>
			<point x="210" y="-12"/>
			<point x="256" y="35"/>
			<point x="256" y="100" type="curve" smooth="yes"/>
			<point x="256" y="163"/>
			<point x="210" y="208"/>
			<point x="146" y="208" type="curve" smooth="yes"/>
			<point x="82" y="208"/>
			<point x="36" y="163"/>
			<point x="36" y="100" type="curve" smooth="yes"/>
			<point x="36" y="35"/>
			<point x="82" y="-12"/>
		</contour>
		<contour>
			<point x="348" y="264" type="curve"/>
			<point x="488" y="264" type="line"/>
			<point x="476" y="366"/>
			<point x="584" y="403"/>
			<point x="584" y="546" type="curve" smooth="yes"/>
			<point x="584" y="630"/>
			<point x="514" y="682"/>
			<point x="430" y="682" type="curve" smooth="yes"/>
			<point x="380" y="682"/>
			<point x="326" y="664"/>
			<point x="286" y="626" type="curve"/>
			<point x="360" y="528" type="line"/>
			<point x="372" y="540"/>
			<point x="380" y="544"/>
			<point x="394" y="544" type="curve" smooth="yes"/>
			<point x="407" y="544"/>
			<point x="420" y="534"/>
			<point x="420" y="510" type="curve" smooth="yes"/>
			<point x="420" y="440"/>
			<point x="326" y="382"/>
		</contour>
		<contour>
			<point x="426" y="-12" type="curve" smooth="yes"/>
			<point x="490" y="-12"/>
			<point x="536" y="35"/>
			<point x="536" y="100" type="curve" smooth="yes"/>
			<point x="536" y="163"/>
			<point x="490" y="208"/>
			<point x="426" y="208" type="curve" smooth="yes"/>
			<point x="362" y="208"/>
			<point x="316" y="163"/>
			<point x="316" y="100" type="curve" smooth="yes"/>
			<point x="316" y="35"/>
			<point x="362" y="-12"/>
		</contour>
	</outline>
</glyph>
<glyph name="ruble" format="2">
	<unicode hex="20BD"/>
	<advance width="600"/>
	<outline>
		<contour>
			<point x="118" y="0" type="line"/>
			<point x="280" y="0" type="line"/>
			<point x="280" y="262" type="line"/>
			<point x="328" y="262" type="line" smooth="yes"/>
			<point x="456" y="262"/>
			<point x="572" y="314"/>
			<point x="572" y="446" type="curve" smooth="yes"/>
			<point x="572" y="577"/>
			<point x="462" y="634"/>
			<point x="328" y="634" type="curve" smooth="yes"/>
			<point x="118" y="634" type="line"/>
		</contour>
		<contour>
			<point x="280" y="346" type="line"/>
			<point x="280" y="528" type="line"/>
			<point x="324" y="528" type="line" smooth="yes"/>
			<point x="380" y="528"/>
			<point x="414" y="500"/>
			<point x="414" y="436" type="curve" smooth="yes"/>
			<point x="414" y="384"/>
			<point x="380" y="346"/>
			<point x="324" y="346" type="curve" smooth="yes"/>
		</contour>
		<contour>
			<point x="12" y="262" type="line"/>
			<point x="192" y="262" type="line"/>
			<point x="192" y="346" type="line"/>
			<point x="136" y="346" type="line"/>
			<point x="12" y="340" type="line"/>
		</contour>
		<contour>
			<point x="12" y="134" type="line"/>
			<point x="504" y="134" type="line"/>
			<point x="504" y="218" type="line"/>
			<point x="136" y="218" type="line"/>
			<point x="12" y="212" type="line"/>
		</contour>
	</outline>
</glyph>
<glyph name="heavyhorzbxd" format="2">
	<unicode hex="2501"/>
	<advance width="600"/>
	<outline>
		<contour>
			<point x="-80" y="140" type="line"/>
			<point x="680" y="140" type="line"/>
			<point x="680" y="460" type="line"/>
			<point x="-80" y="460" type="line"/>
		</contour>
	</outline>
</glyph>
<glyph name="heavydnbxd" format="2">
	<unicode hex="257B"/>
	<advance width="600"/>
	<outline>
		<contour>
			<point x="140" y="-400" type="line"/>
			<point x="460" y="-400" type="line"/>
			<point x="460" y="380" type="line"/>
			<point x="140" y="380" type="line"/>
		</contour>
	</outline>
</glyph>
<glyph name="heavyleftlightrightbxd" format="2">
	<unicode hex="257E"/>
	<advance width="600"/>
	<outline>
		<contour>
			<point x="680" y="220" type="line"/>
			<point x="680" y="380" type="line"/>
			<point x="380" y="380" type="line"/>
			<point x="380" y="460" type="line"/>
			<point x="-80" y="460" type="line"/>
			<point x="-80" y="140" type="line"/>
			<point x="380" y="140" type="line"/>
			<point x="380" y="220" type="line"/>
		</contour>
	</outline>
</glyph>
<glyph name="bulletsquarewhite" format="2">
	<unicode hex="25AB"/>
	<advance width="600"/>
	<outline>
		<contour>
			<point x="122" y="88" type="line"/>
			<point x="478" y="88" type="line"/>
			<point x="478" y="436" type="line"/>
			<point x="122" y="436" type="line"/>
		</contour>
		<contour>
			<point x="212" y="168" type="line"/>
			<point x="212" y="356" type="line"/>
			<point x="388" y="356" type="line"/>
			<point x="388" y="168" type="line"/>
		</contour>
	</outline>
</glyph>
<glyph name="trianglerightblack" format="2">
	<unicode hex="25B6"/>
	<advance width="600"/>
	<outline>
		<contour>
			<point x="70" y="106" type="line"/>
			<point x="74" y="106" type="line"/>
			<point x="550" y="338" type="line"/>
			<point x="550" y="342" type="line"/>
			<point x="74" y="574" type="line"/>
			<point x="70" y="574" type="line"/>
		</contour>
	</outline>
</glyph>
<glyph name="trianglerightwhite" format="2">
	<unicode hex="25B7"/>
	<advance width="600"/>
	<outline>
		<contour>
			<point x="70" y="106" type="line"/>
			<point x="74" y="106" type="line"/>
			<point x="550" y="338" type="line"/>
			<point x="550" y="342" type="line"/>
			<point x="74" y="574" type="line"/>
			<point x="70" y="574" type="line"/>
		</contour>
		<contour>
			<point x="160" y="254" type="line"/>
			<point x="160" y="426" type="line"/>
			<point x="352" y="340" type="line"/>
		</contour>
	</outline>
</glyph>
<glyph name="triangleleftblack" format="2">
	<unicode hex="25C0"/>
	<advance width="600"/>
	<outline>
		<contour>
			<point x="526" y="106" type="line"/>
			<point x="530" y="106" type="line"/>
			<point x="530" y="574" type="line"/>
			<point x="526" y="574" type="line"/>
			<point x="50" y="342" type="line"/>
			<point x="50" y="338" type="line"/>
		</contour>
	</outline>
</glyph>
<glyph name="fisheye" format="2">
	<unicode hex="25C9"/>
	<advance width="600"/>
	<outline>
		<contour>
			<point x="300" y="86" type="curve" smooth="yes"/>
			<point x="440" y="86"/>
			<point x="544" y="188"/>
			<point x="544" y="330" type="curve" smooth="yes"/>
			<point x="544" y="472"/>
			<point x="440" y="574"/>
			<point x="300" y="574" type="curve" smooth="yes"/>
			<point x="160" y="574"/>
			<point x="56" y="472"/>
			<point x="56" y="330" type="curve" smooth="yes"/>
			<point x="56" y="188"/>
			<point x="160" y="86"/>
		</contour>
		<contour>
			<point x="300" y="166" type="curve" smooth="yes"/>
			<point x="208" y="166"/>
			<point x="140" y="235"/>
			<point x="140" y="330" type="curve" smooth="yes"/>
			<point x="140" y="425"/>
			<point x="208" y="494"/>
			<point x="300" y="494" type="curve" smooth="yes"/>
			<point x="392" y="494"/>
			<point x="460" y="425"/>
			<point x="460" y="330" type="curve" smooth="yes"/>
			<point x="460" y="235"/>
			<point x="392" y="166"/>
		</contour>
		<contour>
			<point x="300" y="218" type="curve" smooth="yes"/>
			<point x="361" y="218"/>
			<point x="408" y="268"/>
			<point x="408" y="330" type="curve" smooth="yes"/>
			<point x="408" y="392"/>
			<point x="361" y="442"/>
			<point x="300" y="442" type="curve" smooth="yes"/>
			<point x="239" y="442"/>
			<point x="192" y="392"/>
			<point x="192" y="330" type="curve" smooth="yes"/>
			<point x="192" y="268"/>
			<point x="239" y="218"/>
		</contour>
	</outline>
</glyph>
<glyph name="smileface" format="2">
	<unicode hex="263A"/>
	<advance width="600"/>
	<outline>
		<contour>
			<point x="300" y="24" type="curve" smooth="yes"/>
			<point x="484" y="24"/>
			<point x="610" y="150"/>
			<point x="610" y="330" type="curve" smooth="yes"/>
			<point x="610" y="510"/>
			<point x="484" y="636"/>
			<point x="300" y="636" type="curve" smooth="yes"/>
			<point x="116" y="636"/>
			<point x="-10" y="510"/>
			<point x="-10" y="330" type="curve" smooth="yes"/>
			<point x="-10" y="150"/>
			<point x="116" y="24"/>
		</contour>
		<contour>
			<point x="300" y="100" type="curve" smooth="yes"/>
			<point x="166" y="100"/>
			<point x="76" y="192"/>
			<point x="76" y="330" type="curve" smooth="yes"/>
			<point x="76" y="468"/>
			<point x="166" y="560"/>
			<point x="300" y="560" type="curve" smooth="yes"/>
			<point x="434" y="560"/>
			<point x="524" y="468"/>
			<point x="524" y="330" type="curve" smooth="yes"/>
			<point x="524" y="192"/>
			<point x="434" y="100"/>
		</contour>
		<contour>
			<point x="220" y="332" type="curve" smooth="yes"/>
			<point x="254" y="332"/>
			<point x="276" y="360"/>
			<point x="276" y="404" type="curve" smooth="yes"/>
			<point x="276" y="448"/>
			<point x="254" y="476"/>
			<point x="220" y="476" type="curve" smooth="yes"/>
			<point x="186" y="476"/>
			<point x="164" y="448"/>
			<point x="164" y="404" type="curve" smooth="yes"/>
			<point x="164" y="360"/>
			<point x="186" y="332"/>
		</contour>
		<contour>
			<point x="380" y="332" type="curve" smooth="yes"/>
			<point x="414" y="332"/>
			<point x="436" y="360"/>
			<point x="436" y="404" type="curve" smooth="yes"/>
			<point x="436" y="448"/>
			<point x="414" y="476"/>
			<point x="380" y="476" type="curve" smooth="yes"/>
			<point x="346" y="476"/>
			<point x="324" y="448"/>
			<point x="324" y="404" type="curve" smooth="yes"/>
			<point x="324" y="360"/>
			<point x="346" y="332"/>
		</contour>
		<contour>
			<point x="300" y="152" type="curve" smooth="yes"/>
			<point x="387" y="152"/>
			<point x="442" y="198"/>
			<point x="454" y="272" type="curve"/>
			<point x="402" y="294" type="line"/>
			<point x="388" y="256"/>
			<point x="350" y="234"/>
			<point x="300" y="234" type="curve" smooth="yes"/>
			<point x="250" y="234"/>
			<point x="212" y="256"/>
			<point x="198" y="294" type="curve"/>
			<point x="146" y="272" type="line"/>
			<point x="158" y="198"/>
			<point x="213" y="152"/>
		</contour>
		<contour>
			<point x="236" y="396" type="curve" smooth="yes"/>
			<point x="228" y="396"/>
			<point x="222" y="402"/>
			<point x="222" y="412" type="curve" smooth="yes"/>
			<point x="222" y="422"/>
			<point x="228" y="428"/>
			<point x="236" y="428" type="curve" smooth="yes"/>
			<point x="244" y="428"/>
			<point x="250" y="422"/>
			<point x="250" y="412" type="curve" smooth="yes"/>
			<point x="250" y="402"/>
			<point x="244" y="396"/>
		</contour>
		<contour>
			<point x="396" y="396" type="curve" smooth="yes"/>
			<point x="388" y="396"/>
			<point x="382" y="402"/>
			<point x="382" y="412" type="curve" smooth="yes"/>
			<point x="382" y="422"/>
			<point x="388" y="428"/>
			<point x="396" y="428" type="curve" smooth="yes"/>
			<point x="404" y="428"/>
			<point x="410" y="422"/>
			<point x="410" y="412" type="curve" smooth="yes"/>
			<point x="410" y="402"/>
			<point x="404" y="396"/>
		</contour>
	</outline>
</glyph>
<glyph name="squareshadow" format="2">
	<unicode hex="2752"/>
	<advance width="600"/>
	<outline>
		<contour>
			<point x="46" y="76" type="line"/>
			<point x="482" y="76" type="line"/>
			<point x="554" y="150" type="line"/>
			<point x="554" y="584" type="line"/>
			<point x="124" y="584" type="line"/>
			<point x="46" y="516" type="line"/>
		</contour>
		<contour>
			<point x="114" y="140" type="line"/>
			<point x="114" y="502" type="line"/>
			<point x="468" y="502" type="line"/>
			<point x="468" y="140" type="line"/>
		</contour>
	</outline>
</glyph>
<glyph name="poop" format="2">
	<unicode hex="1F4A9"/>
	<advance width="600"/>
	<outline>
		<contour>
			<point x="300" y="14" type="curve" smooth="yes"/>
			<point x="523" y="14"/>
			<point x="620" y="41"/>
			<point x="620" y="160" type="curve" smooth="yes"/>
			<point x="620" y="224"/>
			<point x="590" y="262"/>
			<point x="524" y="278" type="curve"/>
			<point x="550" y="296"/>
			<point x="562" y="324"/>
			<point x="562" y="368" type="curve" smooth="yes"/>
			<point x="562" y="440"/>
			<point x="514" y="478"/>
			<point x="448" y="490" type="curve"/>
			<point x="462" y="504"/>
			<point x="470" y="518"/>
			<point x="470" y="544" type="curve" smooth="yes"/>
			<point x="470" y="598"/>
			<point x="420" y="636"/>
			<point x="320" y="662" type="curve"/>
			<point x="260" y="600"/>
			<point x="130" y="642"/>
			<point x="130" y="542" type="curve" smooth="yes"/>
			<point x="130" y="514"/>
			<point x="140" y="502"/>
			<point x="152" y="490" type="curve"/>
			<point x="86" y="478"/>
			<point x="38" y="440"/>
			<point x="38" y="368" type="curve" smooth="yes"/>
			<point x="38" y="324"/>
			<point x="50" y="296"/>
			<point x="76" y="278" type="curve"/>
			<point x="10" y="262"/>
			<point x="-20" y="224"/>
			<point x="-20" y="160" type="curve" smooth="yes"/>
			<point x="-20" y="41"/>
			<point x="77" y="14"/>
		</contour>
		<contour>
			<point x="300" y="110" type="curve" smooth="yes"/>
			<point x="226" y="110"/>
			<point x="164" y="142"/>
			<point x="158" y="224" type="curve"/>
			<point x="442" y="224" type="line"/>
			<point x="436" y="142"/>
			<point x="374" y="110"/>
		</contour>
		<contour>
			<point x="144" y="312" type="line"/>
			<point x="146" y="398"/>
			<point x="170" y="432"/>
			<point x="212" y="432" type="curve" smooth="yes"/>
			<point x="254" y="432"/>
			<point x="278" y="398"/>
			<point x="280" y="312" type="curve"/>
			<point x="248" y="310" type="line"/>
			<point x="246" y="354"/>
			<point x="236" y="372"/>
			<point x="212" y="372" type="curve" smooth="yes"/>
			<point x="188" y="372"/>
			<point x="178" y="354"/>
			<point x="176" y="310" type="curve"/>
		</contour>
		<contour>
			<point x="320" y="312" type="line"/>
			<point x="322" y="398"/>
			<point x="346" y="432"/>
			<point x="388" y="432" type="curve" smooth="yes"/>
			<point x="430" y="432"/>
			<point x="454" y="398"/>
			<point x="456" y="312" type="curve"/>
			<point x="424" y="310" type="line"/>
			<point x="422" y="354"/>
			<point x="412" y="372"/>
			<point x="388" y="372" type="curve" smooth="yes"/>
			<point x="364" y="372"/>
			<point x="354" y="354"/>
			<point x="352" y="310" type="curve"/>
		</contour>
	</outline>
</glyph>
<glyph name="lock" format="2">
	<unicode hex="1F512"/>
	<advance width="600"/>
	<outline>
		<contour>
			<point x="60" y="-70" type="line"/>
			<point x="540" y="-70" type="line"/>
			<point x="580" y="-40" type="line"/>
			<point x="580" y="490" type="line"/>
			<point x="540" y="520" type="line"/>
			<point x="494" y="520" type="line"/>
			<point x="494" y="660" type="line" smooth="yes"/>
			<point x="494" y="785"/>
			<point x="423" y="856"/>
			<point x="300" y="856" type="curve" smooth="yes"/>
			<point x="177" y="856"/>
			<point x="106" y="785"/>
			<point x="106" y="660" type="curve"/>
			<point x="106" y="520" type="line"/>
			<point x="60" y="520" type="line"/>
			<point x="20" y="490" type="line"/>
			<point x="20" y="-40" type="line"/>
		</contour>
		<contour>
			<point x="250" y="70" type="line"/>
			<point x="272" y="232" type="line"/>
			<point x="238" y="246"/>
			<point x="220" y="272"/>
			<point x="220" y="306" type="curve" smooth="yes"/>
			<point x="220" y="350"/>
			<point x="256" y="386"/>
			<point x="300" y="386" type="curve" smooth="yes"/>
			<point x="344" y="386"/>
			<point x="380" y="350"/>
			<point x="380" y="306" type="curve" smooth="yes"/>
			<point x="380" y="272"/>
			<point x="362" y="246"/>
			<point x="328" y="232" type="curve"/>
			<point x="350" y="70" type="line"/>
			<point x="310" y="52" type="line"/>
			<point x="290" y="52" type="line"/>
		</contour>
		<contour>
			<point x="236" y="520" type="line"/>
			<point x="236" y="640" type="line" smooth="yes"/>
			<point x="236" y="696"/>
			<point x="257" y="730"/>
			<point x="300" y="730" type="curve" smooth="yes"/>
			<point x="343" y="730"/>
			<point x="364" y="696"/>
			<point x="364" y="640" type="curve" smooth="yes"/>
			<point x="364" y="520" type="line"/>
		</contour>
	</outline>
</glyph>
<glyph name="circumflexhoicmb.cap" format="2">
	<advance width="600"/>
	<outline>
		<contour>
			<point x="206" y="680" type="line"/>
			<point x="298" y="752" type="line"/>
			<point x="302" y="752" type="line"/>
			<point x="394" y="680" type="line"/>
			<point x="462" y="724" type="line"/>
			<point x="374" y="828" type="line"/>
			<point x="226" y="828" type="line"/>
			<point x="138" y="724" type="line"/>
		</contour>
		<contour>
			<point x="446" y="748" type="line"/>
			<point x="517" y="752"/>
			<point x="570" y="776"/>
			<point x="570" y="838" type="curve" smooth="yes"/>
			<point x="570" y="882"/>
			<point x="536" y="918"/>
			<point x="414" y="922" type="curve"/>
			<point x="398" y="854" type="line"/>
			<point x="449" y="850"/>
			<point x="462" y="840"/>
			<point x="462" y="824" type="curve" smooth="yes"/>
			<point x="462" y="808"/>
			<point x="450" y="803"/>
			<point x="434" y="800" type="curve"/>
		</contour>
	</outline>
	<anchor name="_aboveUC" x="300" y="670"/>
</glyph>
<glyph name="emdash.sups" format="2">
	<advance width="600"/>
	<outline>
		<contour>
			<point x="62" y="496" type="line"/>
			<point x="538" y="496" type="line"/>
			<point x="538" y="570" type="line"/>
			<point x="62" y="570" type="line"/>
		</contour>
	</outline>
</glyph>
<glyph name="eogonek.sups" format="2">
	<advance width="600"/>
	<outline>
		<contour>
			<point x="374" y="214" type="curve" smooth="yes"/>
			<point x="400" y="214"/>
			<point x="434" y="224"/>
			<point x="456" y="238" type="curve"/>
			<point x="432" y="292" type="line"/>
			<point x="424" y="288"/>
			<point x="413" y="284"/>
			<point x="402" y="284" type="curve" smooth="yes"/>
			<point x="386" y="284"/>
			<point x="372" y="293"/>
			<point x="372" y="310" type="curve" smooth="yes"/>
			<point x="372" y="338"/>
			<point x="386" y="358"/>
			<point x="453" y="400" type="curve"/>
			<point x="414" y="470" type="line"/>
			<point x="386" y="456"/>
			<point x="361" y="449"/>
			<point x="334" y="449" type="curve" smooth="yes"/>
			<point x="278" y="449"/>
			<point x="242" y="474"/>
			<point x="242" y="534" type="curve" smooth="yes"/>
			<point x="242" y="598"/>
			<point x="272" y="618"/>
			<point x="312" y="618" type="curve" smooth="yes"/>
			<point x="346" y="618"/>
			<point x="368" y="600"/>
			<point x="368" y="550" type="curve"/>
			<point x="394" y="570" type="line"/>
			<point x="218" y="570" type="line"/>
			<point x="218" y="501" type="line"/>
			<point x="461" y="501" type="line"/>
			<point x="463" y="509"/>
			<point x="466" y="526"/>
			<point x="466" y="546" type="curve" smooth="yes"/>
			<point x="466" y="634"/>
			<point x="415" y="708"/>
			<point x="306" y="708" type="curve" smooth="yes"/>
			<point x="214" y="708"/>
			<point x="132" y="638"/>
			<point x="132" y="534" type="curve" smooth="yes"/>
			<point x="132" y="423"/>
			<point x="214" y="360"/>
			<point x="320" y="360" type="curve" smooth="yes"/>
			<point x="328" y="360"/>
			<point x="341" y="361"/>
			<point x="357" y="364" type="curve"/>
			<point x="351" y="373" type="line"/>
			<point x="311" y="343"/>
			<point x="290" y="318"/>
			<point x="290" y="284" type="curve" smooth="yes"/>
			<point x="290" y="238"/>
			<point x="326" y="214"/>
		</contour>
	</outline>
</glyph>
<glyph name="five.cap" format="2">
	<advance width="600"/>
	<outline>
		<contour>
			<point x="282" y="-12" type="curve" smooth="yes"/>
			<point x="416" y="-12"/>
			<point x="536" y="71"/>
			<point x="536" y="216" type="curve" smooth="yes"/>
			<point x="536" y="353"/>
			<point x="433" y="416"/>
			<point x="318" y="416" type="curve" smooth="yes"/>
			<point x="293" y="416"/>
			<point x="274" y="414"/>
			<point x="248" y="406" type="curve"/>
			<point x="256" y="506" type="line"/>
			<point x="508" y="506" type="line"/>
			<point x="508" y="650" type="line"/>
			<point x="108" y="650" type="line"/>
			<point x="92" y="316" type="line"/>
			<point x="166" y="268" type="line"/>
			<point x="208" y="292"/>
			<point x="226" y="298"/>
			<point x="264" y="298" type="curve" smooth="yes"/>
			<point x="320" y="298"/>
			<point x="364" y="269"/>
			<point x="364" y="212" type="curve" smooth="yes"/>
			<point x="364" y="153"/>
			<point x="322" y="126"/>
			<point x="256" y="126" type="curve" smooth="yes"/>
			<point x="206" y="126"/>
			<point x="161" y="158"/>
			<point x="118" y="194" type="curve"/>
			<point x="42" y="78" type="line"/>
			<point x="96" y="26"/>
			<point x="173" y="-12"/>
		</contour>
	</outline>
</glyph>
<glyph name="istroke.da" format="2">
	<advance width="600"/>
	<outline>
		<contour>
			<point x="98" y="214" type="line"/>
			<point x="546" y="214" type="line"/>
			<point x="546" y="294" type="line"/>
			<point x="244" y="294" type="line"/>
			<point x="98" y="288" type="line"/>
		</contour>
		<component base="dotlessi.a"/>
	</outline>
	<anchor name="aboveLC" x="324" y="520"/>
	<anchor name="belowLC" x="324" y="-20"/>
</glyph>
<glyph name="macroncmb.cap" format="2">
	<advance width="600"/>
	<outline>
		<contour>
			<point x="142" y="716" type="line"/>
			<point x="458" y="716" type="line"/>
			<point x="458" y="824" type="line"/>
			<point x="142" y="824" type="line"/>
		</contour>
	</outline>
	<anchor name="_aboveUC" x="300" y="670"/>
</glyph>
<glyph name="one.onum" format="2">
	<advance width="600"/>
	<outline>
		<contour>
			<point x="72" y="0" type="line"/>
			<point x="546" y="0" type="line"/>
			<point x="546" y="138" type="line"/>
			<point x="410" y="138" type="line"/>
			<point x="410" y="580" type="line"/>
			<point x="284" y="580" type="line"/>
			<point x="232" y="550"/>
			<point x="188" y="532"/>
			<point x="98" y="518" type="curve"/>
			<point x="98" y="412" type="line"/>
			<point x="238" y="412" type="line"/>
			<point x="238" y="138" type="line"/>
			<point x="72" y="138" type="line"/>
		</contour>
	</outline>
</glyph>
